#!OML:ASF I:\golf\golf\golf 2\Subject 1\2002-09-07\Subject1.ASF
:FULLY-SPECIFIED
:DEGREES
447
root -2.57978 17.5417 -5.41378 38.3576 38.3428 1.65687
lowerback 35.113 4.37721 5.36232
upperback 8.51337 8.44436 7.6622
thorax -8.71695 3.87989 2.06931
lowerneck -16.4926 -8.78479 -0.0168679
upperneck 5.23602 -11.8323 0.515853
head 4.21219 -5.83292 -0.811087
rclavicle -3.18055e-015 1.90833e-014
rhumerus 9.90718 14.5328 -44.8504
rradius 38.0063
rwrist -23.7444
rhand -23.3014 9.59032
rfingers 7.12502
rthumb 3.15204 -20.3661
lclavicle -3.18055e-015 1.90833e-014
lhumerus -22.9365 -24.3505 92.2159
lradius 70.3076
lwrist 18.5202
lhand -12.669 29.255
lfingers 7.12502
lthumb 13.4122 58.8033
rfemur -68.696 -6.12874 21.384
rtibia 33.5291
rfoot 1.65243 3.00285
rtoes 7.38322
lfemur -48.1715 -3.14245 -13.6297
ltibia 35.9491
lfoot -18.6282 -13.5291
ltoes -1.00461
448
root -2.56782 17.5591 -5.47185 37.0248 37.8261 1.23643
lowerback 35.3554 4.55282 4.8812
upperback 8.3516 8.51847 7.57963
thorax -9.04413 3.90607 2.1745
lowerneck -16.7805 -8.72951 -0.0407563
upperneck 5.78773 -11.7565 0.51888
head 4.43091 -5.78201 -0.831258
rclavicle -3.49861e-014 9.38264e-014
rhumerus 7.66172 15.017 -46.0825
rradius 38.8315
rwrist -23.5283
rhand -23.4803 9.652
rfingers 7.12502
rthumb 2.97928 -20.3069
lclavicle -3.49861e-014 9.38264e-014
lhumerus -23.0384 -24.3155 92.4389
lradius 69.3047
lwrist 18.1775
lhand -12.9776 29.2967
lfingers 7.12502
lthumb 13.1148 58.8643
rfemur -67.3873 -5.6259 21.0067
rtibia 33.1266
rfoot 1.79653 2.90236
rtoes 7.18695
lfemur -47.1132 -2.92736 -13.8379
ltibia 36.2347
lfoot -18.8877 -13.3144
ltoes -0.204363
449
root -2.55417 17.573 -5.5288 35.7229 37.2701 0.743814
lowerback 35.6831 4.32214 4.51286
upperback 8.11922 8.11529 7.31376
thorax -9.41687 3.71151 2.20921
lowerneck -17.0987 -8.40088 -0.319258
upperneck 6.37657 -11.2831 0.748535
head 4.69552 -5.52422 -0.713565
rclavicle 1.59028e-014 -2.22639e-014
rhumerus 7.55464 14.5781 -49.3369
rradius 37.3131
rwrist -21.0451
rhand -23.9646 9.99496
rfingers 7.12502
rthumb 2.51153 -19.97
lclavicle 1.59028e-014 -2.22639e-014
lhumerus -23.2783 -23.436 91.9426
lradius 68.5238
lwrist 18.0943
lhand -13.1964 29.4664
lfingers 7.12502
lthumb 12.9039 59.0474
rfemur -66.1988 -5.26465 20.9675
rtibia 32.7077
rfoot 1.96385 3.18028
rtoes 6.9418
lfemur -46.089 -2.53249 -14.0545
ltibia 36.4912
lfoot -19.3742 -12.9744
ltoes -1.02342
450
root -2.53683 17.5766 -5.60117 34.4945 37.0475 0.209695
lowerback 35.6065 4.1746 4.46553
upperback 7.98286 7.91511 7.23827
thorax -9.52869 3.61915 2.22946
lowerneck -17.2877 -8.23313 -0.273085
upperneck 6.74569 -11.0733 0.768958
head 4.83986 -5.4087 -0.714637
rclavicle -3.18055e-015 -2.70347e-014
rhumerus 6.43803 15.3518 -50.3982
rradius 37.3682
rwrist -21.1452
rhand -24.1521 10.0783
rfingers 7.12502
rthumb 2.33046 -19.8887
lclavicle -3.18055e-015 -2.70347e-014
lhumerus -23.5437 -23.2483 91.4328
lradius 68.1691
lwrist 18.4576
lhand -13.2572 29.5674
lfingers 7.12502
lthumb 12.8453 59.1522
rfemur -65.1747 -5.08544 21.1177
rtibia 32.3295
rfoot 2.20909 3.39495
rtoes 6.91971
lfemur -45.286 -2.2837 -14.0452
ltibia 36.7361
lfoot -19.7423 -12.6794
ltoes -2.07235
451
root -2.50564 17.5741 -5.68863 33.4586 36.868 -0.275369
lowerback 35.407 3.88564 4.74753
upperback 7.77386 7.63742 7.07088
thorax -9.61443 3.48589 2.01866
lowerneck -17.6228 -8.05574 -0.317566
upperneck 7.23876 -10.8289 0.759146
head 5.04945 -5.27737 -0.717347
rclavicle -9.54166e-015 1.35174e-014
rhumerus 5.22937 15.917 -51.541
rradius 37.4058
rwrist -21.0008
rhand -24.1429 10.3154
rfingers 7.12502
rthumb 2.3394 -19.6515
lclavicle -9.54166e-015 1.35174e-014
lhumerus -23.721 -22.644 91.4146
lradius 67.3534
lwrist 18.0821
lhand -13.2146 29.4818
lfingers 7.12502
lthumb 12.8863 59.064
rfemur -64.4139 -5.08877 21.3208
rtibia 32.0449
rfoot 2.44721 3.75329
rtoes 6.90842
lfemur -44.7409 -2.19892 -13.9998
ltibia 37.0249
lfoot -19.8133 -12.6669
ltoes -1.06639
452
root -2.47131 17.5624 -5.77505 32.7871 36.5171 -0.568378
lowerback 34.2523 3.86318 4.55294
upperback 7.88005 7.45797 7.1403
thorax -9.09684 3.43718 2.32198
lowerneck -17.6381 -7.96931 -0.653781
upperneck 7.33149 -10.6385 0.78231
head 5.0998 -5.18916 -0.646206
rclavicle 4.45278e-014 -9.30312e-014
rhumerus 4.23398 16.3565 -52.1528
rradius 37.4884
rwrist -20.9366
rhand -24.1165 10.3478
rfingers 7.12502
rthumb 2.36486 -19.6189
lclavicle 4.45278e-014 -9.30312e-014
lhumerus -23.609 -21.9989 91.8312
lradius 66.4335
lwrist 17.4191
lhand -13.1768 29.6545
lfingers 7.12502
lthumb 12.9227 59.2343
rfemur -64.005 -5.05518 21.3197
rtibia 31.8606
rfoot 2.58118 4.12444
rtoes 6.38025
lfemur -44.4694 -2.11193 -14.1435
ltibia 37.3262
lfoot -19.738 -12.8084
ltoes 1.41057
453
root -2.45258 17.5456 -5.85061 32.1757 36.4073 -0.630087
lowerback 33.1727 3.86013 4.23221
upperback 8.00453 7.27739 7.24101
thorax -8.59785 3.38724 2.72006
lowerneck -17.6965 -7.96176 -0.844432
upperneck 7.367 -10.5937 0.868052
head 5.13486 -5.16476 -0.591074
rclavicle -5.40694e-014 3.18055e-014
rhumerus 3.11804 16.3477 -52.8481
rradius 37.587
rwrist -20.7143
rhand -23.992 10.3163
rfingers 7.12502
rthumb 2.48508 -19.6489
lclavicle -5.40694e-014 3.18055e-014
lhumerus -23.3923 -21.6092 92.1343
lradius 65.6143
lwrist 16.989
lhand -13.2377 29.8901
lfingers 7.12502
lthumb 12.8641 59.4737
rfemur -63.4848 -4.9234 20.9452
rtibia 31.7238
rfoot 2.64573 3.96972
rtoes 5.66483
lfemur -44.1621 -2.24671 -14.2993
ltibia 37.5836
lfoot -19.6926 -12.9106
ltoes 3.40406
454
root -2.43587 17.5348 -5.92486 31.3797 36.4514 -0.619404
lowerback 32.5517 3.78769 4.00431
upperback 8.02366 7.08762 7.33476
thorax -8.37138 3.31798 3.03778
lowerneck -17.6292 -7.97859 -0.941822
upperneck 7.33963 -10.6016 0.940963
head 5.125 -5.16645 -0.551668
rclavicle -9.85972e-014 -5.08889e-014
rhumerus 1.81479 16.1716 -53.6735
rradius 37.6466
rwrist -20.3211
rhand -23.9002 10.402
rfingers 7.12502
rthumb 2.57374 -19.5623
lclavicle -9.85972e-014 -5.08889e-014
lhumerus -23.2927 -21.4743 92.2641
lradius 64.9142
lwrist 16.8764
lhand -13.3931 30.1465
lfingers 7.12502
lthumb 12.7142 59.7394
rfemur -62.6818 -4.99267 20.5932
rtibia 31.583
rfoot 2.74174 3.83041
rtoes 5.57385
lfemur -43.5797 -2.51703 -14.4789
ltibia 37.7901
lfoot -19.8698 -12.8616
ltoes 3.59472
455
root -2.41518 17.5339 -5.99855 30.4931 36.249 -0.683836
lowerback 30.5493 3.67137 3.91909
upperback 9.24302 6.70807 7.19732
thorax -6.71985 3.23329 3.4382
lowerneck -18.1706 -7.93122 -0.849714
upperneck 6.73178 -10.5573 1.03953
head 5.01752 -5.14198 -0.535814
rclavicle -4.77083e-014 -4.45278e-014
rhumerus 1.77357 15.2632 -54.3974
rradius 37.4481
rwrist -19.9034
rhand -23.662 10.5715
rfingers 7.12502
rthumb 2.80381 -19.3899
lclavicle -4.77083e-014 -4.45278e-014
lhumerus -21.7738 -21.3632 91.7632
lradius 64.0306
lwrist 16.7427
lhand -13.4954 30.3203
lfingers 7.12502
lthumb 12.6156 59.9194
rfemur -61.7803 -4.93692 20.26
rtibia 31.3543
rfoot 2.88411 3.88267
rtoes 5.05491
lfemur -42.8159 -2.58189 -14.7566
ltibia 37.9203
lfoot -20.1498 -12.6235
ltoes 2.78814
456
root -2.39492 17.5342 -6.06738 29.4987 35.8191 -1.03386
lowerback 29.6115 3.78115 3.58954
upperback 9.5143 6.67491 7.26355
thorax -6.01656 3.23648 3.76392
lowerneck -18.3439 -7.88111 -0.756932
upperneck 6.4731 -10.4851 0.861914
head 4.94705 -5.11996 -0.596359
rclavicle -2.8625e-014 -2.8625e-014
rhumerus 0.959807 14.8814 -55.1161
rradius 37.3946
rwrist -19.789
rhand -23.3108 10.8139
rfingers 7.12502
rthumb 3.143 -19.1427
lclavicle -2.8625e-014 -2.8625e-014
lhumerus -21.2864 -21.1263 91.7454
lradius 63.1819
lwrist 16.4542
lhand -13.4638 30.2721
lfingers 7.12502
lthumb 12.6461 59.8693
rfemur -60.8963 -4.4767 20.0135
rtibia 31.0398
rfoot 3.09571 3.8645
rtoes 4.2809
lfemur -42.066 -2.41647 -14.8546
ltibia 38.0639
lfoot -20.3936 -12.2106
ltoes 1.89247
